<mxfile host="Electron" modified="2024-03-04T17:17:54.875Z" agent="Mozilla/5.0 (Windows NT 10.0; Win64; x64) AppleWebKit/537.36 (KHTML, like Gecko) draw.io/23.1.5 Chrome/120.0.6099.109 Electron/28.1.0 Safari/537.36" etag="0R0IliYNk4XYywBTKNpZ" version="23.1.5" type="device">
  <diagram name="Page-1" id="c4acf3e9-155e-7222-9cf6-157b1a14988f">
    <mxGraphModel dx="928" dy="553" grid="1" gridSize="10" guides="1" tooltips="1" connect="1" arrows="1" fold="1" page="1" pageScale="1" pageWidth="1200" pageHeight="1600" background="none" math="0" shadow="0">
      <root>
        <mxCell id="0" />
        <mxCell id="1" parent="0" />
        <mxCell id="9W5YQzIZagzXNkQe9lEn-3" value="Main" style="swimlane;fontStyle=1;align=center;verticalAlign=top;childLayout=stackLayout;horizontal=1;startSize=26;horizontalStack=0;resizeParent=1;resizeParentMax=0;resizeLast=0;collapsible=1;marginBottom=0;whiteSpace=wrap;html=1;" parent="1" vertex="1">
          <mxGeometry x="120" y="547" width="160" height="52" as="geometry" />
        </mxCell>
        <mxCell id="9W5YQzIZagzXNkQe9lEn-6" value="+ main(String[] arg): void" style="text;strokeColor=none;fillColor=none;align=left;verticalAlign=top;spacingLeft=4;spacingRight=4;overflow=hidden;rotatable=0;points=[[0,0.5],[1,0.5]];portConstraint=eastwest;whiteSpace=wrap;html=1;" parent="9W5YQzIZagzXNkQe9lEn-3" vertex="1">
          <mxGeometry y="26" width="160" height="26" as="geometry" />
        </mxCell>
        <mxCell id="9W5YQzIZagzXNkQe9lEn-7" value="UserInterface" style="swimlane;fontStyle=1;align=center;verticalAlign=top;childLayout=stackLayout;horizontal=1;startSize=26;horizontalStack=0;resizeParent=1;resizeParentMax=0;resizeLast=0;collapsible=1;marginBottom=0;whiteSpace=wrap;html=1;" parent="1" vertex="1">
          <mxGeometry x="367.5" y="530" width="160" height="86" as="geometry" />
        </mxCell>
        <mxCell id="9W5YQzIZagzXNkQe9lEn-8" value="+ static sc: Scanner" style="text;strokeColor=none;fillColor=none;align=left;verticalAlign=top;spacingLeft=4;spacingRight=4;overflow=hidden;rotatable=0;points=[[0,0.5],[1,0.5]];portConstraint=eastwest;whiteSpace=wrap;html=1;" parent="9W5YQzIZagzXNkQe9lEn-7" vertex="1">
          <mxGeometry y="26" width="160" height="26" as="geometry" />
        </mxCell>
        <mxCell id="9W5YQzIZagzXNkQe9lEn-9" value="" style="line;strokeWidth=1;fillColor=none;align=left;verticalAlign=middle;spacingTop=-1;spacingLeft=3;spacingRight=3;rotatable=0;labelPosition=right;points=[];portConstraint=eastwest;strokeColor=inherit;" parent="9W5YQzIZagzXNkQe9lEn-7" vertex="1">
          <mxGeometry y="52" width="160" height="8" as="geometry" />
        </mxCell>
        <mxCell id="9W5YQzIZagzXNkQe9lEn-10" value="+ static run(): void" style="text;strokeColor=none;fillColor=none;align=left;verticalAlign=top;spacingLeft=4;spacingRight=4;overflow=hidden;rotatable=0;points=[[0,0.5],[1,0.5]];portConstraint=eastwest;whiteSpace=wrap;html=1;" parent="9W5YQzIZagzXNkQe9lEn-7" vertex="1">
          <mxGeometry y="60" width="160" height="26" as="geometry" />
        </mxCell>
        <mxCell id="9W5YQzIZagzXNkQe9lEn-11" value="Speedway" style="swimlane;fontStyle=1;align=center;verticalAlign=top;childLayout=stackLayout;horizontal=1;startSize=26;horizontalStack=0;resizeParent=1;resizeParentMax=0;resizeLast=0;collapsible=1;marginBottom=0;whiteSpace=wrap;html=1;" parent="1" vertex="1">
          <mxGeometry x="600" y="90" width="280" height="138" as="geometry" />
        </mxCell>
        <mxCell id="9W5YQzIZagzXNkQe9lEn-12" value="- private circuitLength: int" style="text;strokeColor=none;fillColor=none;align=left;verticalAlign=top;spacingLeft=4;spacingRight=4;overflow=hidden;rotatable=0;points=[[0,0.5],[1,0.5]];portConstraint=eastwest;whiteSpace=wrap;html=1;" parent="9W5YQzIZagzXNkQe9lEn-11" vertex="1">
          <mxGeometry y="26" width="280" height="26" as="geometry" />
        </mxCell>
        <mxCell id="9W5YQzIZagzXNkQe9lEn-19" value="- private obstacles: int" style="text;strokeColor=none;fillColor=none;align=left;verticalAlign=top;spacingLeft=4;spacingRight=4;overflow=hidden;rotatable=0;points=[[0,0.5],[1,0.5]];portConstraint=eastwest;whiteSpace=wrap;html=1;" parent="9W5YQzIZagzXNkQe9lEn-11" vertex="1">
          <mxGeometry y="52" width="280" height="26" as="geometry" />
        </mxCell>
        <mxCell id="9W5YQzIZagzXNkQe9lEn-13" value="" style="line;strokeWidth=1;fillColor=none;align=left;verticalAlign=middle;spacingTop=-1;spacingLeft=3;spacingRight=3;rotatable=0;labelPosition=right;points=[];portConstraint=eastwest;strokeColor=inherit;" parent="9W5YQzIZagzXNkQe9lEn-11" vertex="1">
          <mxGeometry y="78" width="280" height="8" as="geometry" />
        </mxCell>
        <mxCell id="9W5YQzIZagzXNkQe9lEn-14" value="+ Speedway(int circuit_length, int obstacles): void" style="text;strokeColor=none;fillColor=none;align=left;verticalAlign=top;spacingLeft=4;spacingRight=4;overflow=hidden;rotatable=0;points=[[0,0.5],[1,0.5]];portConstraint=eastwest;whiteSpace=wrap;html=1;" parent="9W5YQzIZagzXNkQe9lEn-11" vertex="1">
          <mxGeometry y="86" width="280" height="26" as="geometry" />
        </mxCell>
        <mxCell id="9W5YQzIZagzXNkQe9lEn-37" value="+ createCircuit(): String" style="text;strokeColor=none;fillColor=none;align=left;verticalAlign=top;spacingLeft=4;spacingRight=4;overflow=hidden;rotatable=0;points=[[0,0.5],[1,0.5]];portConstraint=eastwest;whiteSpace=wrap;html=1;" parent="9W5YQzIZagzXNkQe9lEn-11" vertex="1">
          <mxGeometry y="112" width="280" height="26" as="geometry" />
        </mxCell>
        <mxCell id="9W5YQzIZagzXNkQe9lEn-15" value="Validator" style="swimlane;fontStyle=1;align=center;verticalAlign=top;childLayout=stackLayout;horizontal=1;startSize=26;horizontalStack=0;resizeParent=1;resizeParentMax=0;resizeLast=0;collapsible=1;marginBottom=0;whiteSpace=wrap;html=1;" parent="1" vertex="1">
          <mxGeometry x="600" y="530" width="320" height="130" as="geometry" />
        </mxCell>
        <mxCell id="9W5YQzIZagzXNkQe9lEn-18" value="+ static validateCircuitLength(int circuit): boolean" style="text;strokeColor=none;fillColor=none;align=left;verticalAlign=top;spacingLeft=4;spacingRight=4;overflow=hidden;rotatable=0;points=[[0,0.5],[1,0.5]];portConstraint=eastwest;whiteSpace=wrap;html=1;" parent="9W5YQzIZagzXNkQe9lEn-15" vertex="1">
          <mxGeometry y="26" width="320" height="26" as="geometry" />
        </mxCell>
        <mxCell id="9wJi_Of6CfhaDX_6RyjN-9" value="+ static validateObstaclesQuantity(int obstacles): boolean" style="text;strokeColor=none;fillColor=none;align=left;verticalAlign=top;spacingLeft=4;spacingRight=4;overflow=hidden;rotatable=0;points=[[0,0.5],[1,0.5]];portConstraint=eastwest;whiteSpace=wrap;html=1;" parent="9W5YQzIZagzXNkQe9lEn-15" vertex="1">
          <mxGeometry y="52" width="320" height="26" as="geometry" />
        </mxCell>
        <mxCell id="9wJi_Of6CfhaDX_6RyjN-10" value="+ static validateActionsRunner(String actions): boolean" style="text;strokeColor=none;fillColor=none;align=left;verticalAlign=top;spacingLeft=4;spacingRight=4;overflow=hidden;rotatable=0;points=[[0,0.5],[1,0.5]];portConstraint=eastwest;whiteSpace=wrap;html=1;" parent="9W5YQzIZagzXNkQe9lEn-15" vertex="1">
          <mxGeometry y="78" width="320" height="26" as="geometry" />
        </mxCell>
        <mxCell id="ajSs6QqQF7htdTsWA5VJ-22" value="+ static validateNameRunner(String name): boolean" style="text;strokeColor=none;fillColor=none;align=left;verticalAlign=top;spacingLeft=4;spacingRight=4;overflow=hidden;rotatable=0;points=[[0,0.5],[1,0.5]];portConstraint=eastwest;whiteSpace=wrap;html=1;" vertex="1" parent="9W5YQzIZagzXNkQe9lEn-15">
          <mxGeometry y="104" width="320" height="26" as="geometry" />
        </mxCell>
        <mxCell id="9W5YQzIZagzXNkQe9lEn-20" value="Runner" style="swimlane;fontStyle=1;align=center;verticalAlign=top;childLayout=stackLayout;horizontal=1;startSize=26;horizontalStack=0;resizeParent=1;resizeParentMax=0;resizeLast=0;collapsible=1;marginBottom=0;whiteSpace=wrap;html=1;" parent="1" vertex="1">
          <mxGeometry x="320" y="90" width="255" height="112" as="geometry" />
        </mxCell>
        <mxCell id="9W5YQzIZagzXNkQe9lEn-21" value="+ name: String" style="text;strokeColor=none;fillColor=none;align=left;verticalAlign=top;spacingLeft=4;spacingRight=4;overflow=hidden;rotatable=0;points=[[0,0.5],[1,0.5]];portConstraint=eastwest;whiteSpace=wrap;html=1;" parent="9W5YQzIZagzXNkQe9lEn-20" vertex="1">
          <mxGeometry y="26" width="255" height="26" as="geometry" />
        </mxCell>
        <mxCell id="9W5YQzIZagzXNkQe9lEn-28" value="+ actions: String[]" style="text;strokeColor=none;fillColor=none;align=left;verticalAlign=top;spacingLeft=4;spacingRight=4;overflow=hidden;rotatable=0;points=[[0,0.5],[1,0.5]];portConstraint=eastwest;whiteSpace=wrap;html=1;" parent="9W5YQzIZagzXNkQe9lEn-20" vertex="1">
          <mxGeometry y="52" width="255" height="26" as="geometry" />
        </mxCell>
        <mxCell id="9W5YQzIZagzXNkQe9lEn-22" value="" style="line;strokeWidth=1;fillColor=none;align=left;verticalAlign=middle;spacingTop=-1;spacingLeft=3;spacingRight=3;rotatable=0;labelPosition=right;points=[];portConstraint=eastwest;strokeColor=inherit;" parent="9W5YQzIZagzXNkQe9lEn-20" vertex="1">
          <mxGeometry y="78" width="255" height="8" as="geometry" />
        </mxCell>
        <mxCell id="9W5YQzIZagzXNkQe9lEn-23" value="+ Runner(String name, String[] actions): void" style="text;strokeColor=none;fillColor=none;align=left;verticalAlign=top;spacingLeft=4;spacingRight=4;overflow=hidden;rotatable=0;points=[[0,0.5],[1,0.5]];portConstraint=eastwest;whiteSpace=wrap;html=1;" parent="9W5YQzIZagzXNkQe9lEn-20" vertex="1">
          <mxGeometry y="86" width="255" height="26" as="geometry" />
        </mxCell>
        <mxCell id="9W5YQzIZagzXNkQe9lEn-29" value="Race" style="swimlane;fontStyle=1;align=center;verticalAlign=top;childLayout=stackLayout;horizontal=1;startSize=26;horizontalStack=0;resizeParent=1;resizeParentMax=0;resizeLast=0;collapsible=1;marginBottom=0;whiteSpace=wrap;html=1;" parent="1" vertex="1">
          <mxGeometry x="347.5" y="330" width="200" height="138" as="geometry" />
        </mxCell>
        <mxCell id="9W5YQzIZagzXNkQe9lEn-30" value="new runner: Runner()" style="text;strokeColor=none;fillColor=none;align=left;verticalAlign=top;spacingLeft=4;spacingRight=4;overflow=hidden;rotatable=0;points=[[0,0.5],[1,0.5]];portConstraint=eastwest;whiteSpace=wrap;html=1;" parent="9W5YQzIZagzXNkQe9lEn-29" vertex="1">
          <mxGeometry y="26" width="200" height="26" as="geometry" />
        </mxCell>
        <mxCell id="9W5YQzIZagzXNkQe9lEn-33" value="new speedway: Speedway()" style="text;strokeColor=none;fillColor=none;align=left;verticalAlign=top;spacingLeft=4;spacingRight=4;overflow=hidden;rotatable=0;points=[[0,0.5],[1,0.5]];portConstraint=eastwest;whiteSpace=wrap;html=1;" parent="9W5YQzIZagzXNkQe9lEn-29" vertex="1">
          <mxGeometry y="52" width="200" height="26" as="geometry" />
        </mxCell>
        <mxCell id="9W5YQzIZagzXNkQe9lEn-41" value="+ finalSpeedway: String" style="text;strokeColor=none;fillColor=none;align=left;verticalAlign=top;spacingLeft=4;spacingRight=4;overflow=hidden;rotatable=0;points=[[0,0.5],[1,0.5]];portConstraint=eastwest;whiteSpace=wrap;html=1;" parent="9W5YQzIZagzXNkQe9lEn-29" vertex="1">
          <mxGeometry y="78" width="200" height="26" as="geometry" />
        </mxCell>
        <mxCell id="9W5YQzIZagzXNkQe9lEn-31" value="" style="line;strokeWidth=1;fillColor=none;align=left;verticalAlign=middle;spacingTop=-1;spacingLeft=3;spacingRight=3;rotatable=0;labelPosition=right;points=[];portConstraint=eastwest;strokeColor=inherit;" parent="9W5YQzIZagzXNkQe9lEn-29" vertex="1">
          <mxGeometry y="104" width="200" height="8" as="geometry" />
        </mxCell>
        <mxCell id="9W5YQzIZagzXNkQe9lEn-32" value="+ static startRace(): void" style="text;strokeColor=none;fillColor=none;align=left;verticalAlign=top;spacingLeft=4;spacingRight=4;overflow=hidden;rotatable=0;points=[[0,0.5],[1,0.5]];portConstraint=eastwest;whiteSpace=wrap;html=1;" parent="9W5YQzIZagzXNkQe9lEn-29" vertex="1">
          <mxGeometry y="112" width="200" height="26" as="geometry" />
        </mxCell>
        <mxCell id="9wJi_Of6CfhaDX_6RyjN-3" value="Use" style="endArrow=open;endSize=12;dashed=1;html=1;rounded=0;exitX=1;exitY=-0.092;exitDx=0;exitDy=0;exitPerimeter=0;entryX=0;entryY=0.5;entryDx=0;entryDy=0;" parent="1" source="9W5YQzIZagzXNkQe9lEn-6" target="9W5YQzIZagzXNkQe9lEn-8" edge="1">
          <mxGeometry width="160" relative="1" as="geometry">
            <mxPoint x="190" y="780" as="sourcePoint" />
            <mxPoint x="350" y="780" as="targetPoint" />
          </mxGeometry>
        </mxCell>
        <mxCell id="9wJi_Of6CfhaDX_6RyjN-6" value="Use" style="endArrow=open;endSize=12;dashed=1;html=1;rounded=0;entryX=0.5;entryY=1;entryDx=0;entryDy=0;exitX=0.5;exitY=0;exitDx=0;exitDy=0;" parent="1" source="9W5YQzIZagzXNkQe9lEn-7" target="9W5YQzIZagzXNkQe9lEn-29" edge="1">
          <mxGeometry width="160" relative="1" as="geometry">
            <mxPoint x="170" y="640" as="sourcePoint" />
            <mxPoint x="330" y="640" as="targetPoint" />
          </mxGeometry>
        </mxCell>
        <mxCell id="ajSs6QqQF7htdTsWA5VJ-5" value="Score" style="swimlane;fontStyle=1;align=center;verticalAlign=top;childLayout=stackLayout;horizontal=1;startSize=26;horizontalStack=0;resizeParent=1;resizeParentMax=0;resizeLast=0;collapsible=1;marginBottom=0;whiteSpace=wrap;html=1;" vertex="1" parent="1">
          <mxGeometry x="40" y="90" width="255" height="164" as="geometry" />
        </mxCell>
        <mxCell id="ajSs6QqQF7htdTsWA5VJ-6" value="+ scoreRace: int" style="text;strokeColor=none;fillColor=none;align=left;verticalAlign=top;spacingLeft=4;spacingRight=4;overflow=hidden;rotatable=0;points=[[0,0.5],[1,0.5]];portConstraint=eastwest;whiteSpace=wrap;html=1;" vertex="1" parent="ajSs6QqQF7htdTsWA5VJ-5">
          <mxGeometry y="26" width="255" height="26" as="geometry" />
        </mxCell>
        <mxCell id="ajSs6QqQF7htdTsWA5VJ-7" value="+ scoreRunner: int" style="text;strokeColor=none;fillColor=none;align=left;verticalAlign=top;spacingLeft=4;spacingRight=4;overflow=hidden;rotatable=0;points=[[0,0.5],[1,0.5]];portConstraint=eastwest;whiteSpace=wrap;html=1;" vertex="1" parent="ajSs6QqQF7htdTsWA5VJ-5">
          <mxGeometry y="52" width="255" height="26" as="geometry" />
        </mxCell>
        <mxCell id="ajSs6QqQF7htdTsWA5VJ-8" value="" style="line;strokeWidth=1;fillColor=none;align=left;verticalAlign=middle;spacingTop=-1;spacingLeft=3;spacingRight=3;rotatable=0;labelPosition=right;points=[];portConstraint=eastwest;strokeColor=inherit;" vertex="1" parent="ajSs6QqQF7htdTsWA5VJ-5">
          <mxGeometry y="78" width="255" height="8" as="geometry" />
        </mxCell>
        <mxCell id="ajSs6QqQF7htdTsWA5VJ-9" value="+ Score(int scoreRace, int scoreRunner): void" style="text;strokeColor=none;fillColor=none;align=left;verticalAlign=top;spacingLeft=4;spacingRight=4;overflow=hidden;rotatable=0;points=[[0,0.5],[1,0.5]];portConstraint=eastwest;whiteSpace=wrap;html=1;" vertex="1" parent="ajSs6QqQF7htdTsWA5VJ-5">
          <mxGeometry y="86" width="255" height="26" as="geometry" />
        </mxCell>
        <mxCell id="ajSs6QqQF7htdTsWA5VJ-12" value="+ calculateScoreRunner(): String" style="text;strokeColor=none;fillColor=none;align=left;verticalAlign=top;spacingLeft=4;spacingRight=4;overflow=hidden;rotatable=0;points=[[0,0.5],[1,0.5]];portConstraint=eastwest;whiteSpace=wrap;html=1;" vertex="1" parent="ajSs6QqQF7htdTsWA5VJ-5">
          <mxGeometry y="112" width="255" height="26" as="geometry" />
        </mxCell>
        <mxCell id="ajSs6QqQF7htdTsWA5VJ-11" value="+ calculateScoreRace(): String" style="text;strokeColor=none;fillColor=none;align=left;verticalAlign=top;spacingLeft=4;spacingRight=4;overflow=hidden;rotatable=0;points=[[0,0.5],[1,0.5]];portConstraint=eastwest;whiteSpace=wrap;html=1;" vertex="1" parent="ajSs6QqQF7htdTsWA5VJ-5">
          <mxGeometry y="138" width="255" height="26" as="geometry" />
        </mxCell>
        <mxCell id="ajSs6QqQF7htdTsWA5VJ-16" value="Use" style="endArrow=open;endSize=12;dashed=1;html=1;rounded=0;exitX=1;exitY=0.5;exitDx=0;exitDy=0;entryX=0;entryY=0.5;entryDx=0;entryDy=0;" edge="1" parent="1" source="9W5YQzIZagzXNkQe9lEn-8" target="9W5YQzIZagzXNkQe9lEn-18">
          <mxGeometry width="160" relative="1" as="geometry">
            <mxPoint x="410" y="660" as="sourcePoint" />
            <mxPoint x="570" y="660" as="targetPoint" />
          </mxGeometry>
        </mxCell>
        <mxCell id="ajSs6QqQF7htdTsWA5VJ-17" value="" style="endArrow=block;dashed=1;endFill=0;endSize=12;html=1;rounded=0;exitX=0.5;exitY=0;exitDx=0;exitDy=0;entryX=0.504;entryY=1.093;entryDx=0;entryDy=0;entryPerimeter=0;" edge="1" parent="1" source="9W5YQzIZagzXNkQe9lEn-29" target="9W5YQzIZagzXNkQe9lEn-23">
          <mxGeometry width="160" relative="1" as="geometry">
            <mxPoint x="200" y="490" as="sourcePoint" />
            <mxPoint x="460" y="230" as="targetPoint" />
          </mxGeometry>
        </mxCell>
        <mxCell id="ajSs6QqQF7htdTsWA5VJ-18" value="Implement" style="edgeLabel;html=1;align=center;verticalAlign=middle;resizable=0;points=[];" vertex="1" connectable="0" parent="ajSs6QqQF7htdTsWA5VJ-17">
          <mxGeometry x="-0.2244" relative="1" as="geometry">
            <mxPoint as="offset" />
          </mxGeometry>
        </mxCell>
        <mxCell id="ajSs6QqQF7htdTsWA5VJ-19" value="" style="endArrow=block;dashed=1;endFill=0;endSize=12;html=1;rounded=0;exitX=1.012;exitY=0.676;exitDx=0;exitDy=0;exitPerimeter=0;entryX=0.501;entryY=1.101;entryDx=0;entryDy=0;entryPerimeter=0;" edge="1" parent="1" source="9W5YQzIZagzXNkQe9lEn-33" target="9W5YQzIZagzXNkQe9lEn-37">
          <mxGeometry width="160" relative="1" as="geometry">
            <mxPoint x="640" y="398.65999999999997" as="sourcePoint" />
            <mxPoint x="800" y="398.65999999999997" as="targetPoint" />
            <Array as="points">
              <mxPoint x="740" y="400" />
            </Array>
          </mxGeometry>
        </mxCell>
        <mxCell id="ajSs6QqQF7htdTsWA5VJ-20" value="Implement" style="edgeLabel;html=1;align=center;verticalAlign=middle;resizable=0;points=[];" vertex="1" connectable="0" parent="ajSs6QqQF7htdTsWA5VJ-19">
          <mxGeometry x="0.5856" y="2" relative="1" as="geometry">
            <mxPoint x="2" y="-25" as="offset" />
          </mxGeometry>
        </mxCell>
        <mxCell id="ajSs6QqQF7htdTsWA5VJ-21" value="Use" style="endArrow=open;endSize=12;dashed=1;html=1;rounded=0;entryX=0.499;entryY=1.135;entryDx=0;entryDy=0;entryPerimeter=0;exitX=0;exitY=0.5;exitDx=0;exitDy=0;" edge="1" parent="1" source="9W5YQzIZagzXNkQe9lEn-33" target="ajSs6QqQF7htdTsWA5VJ-11">
          <mxGeometry x="0.7957" width="160" relative="1" as="geometry">
            <mxPoint x="130" y="398.65999999999997" as="sourcePoint" />
            <mxPoint x="290" y="398.65999999999997" as="targetPoint" />
            <Array as="points">
              <mxPoint x="167" y="395" />
            </Array>
            <mxPoint as="offset" />
          </mxGeometry>
        </mxCell>
        <mxCell id="ajSs6QqQF7htdTsWA5VJ-23" value="OBSTACLE RACE" style="text;align=center;fontStyle=1;verticalAlign=middle;spacingLeft=3;spacingRight=3;strokeColor=none;rotatable=0;points=[[0,0.5],[1,0.5]];portConstraint=eastwest;html=1;fontSize=30;" vertex="1" parent="1">
          <mxGeometry x="407.5" y="10" width="140" height="26" as="geometry" />
        </mxCell>
      </root>
    </mxGraphModel>
  </diagram>
</mxfile>
